# xmcd
#
# Track frame offsets:
#	150
#	12815
#	23867
#	33017
#	44217
#	56655
#	67560
#	81600
#	92872
#	103222
#	113390
#	124762
#	135457
#	144977
#	157685
#	169992
#	181350
#	191137
#	200255
#	212225
#	223625
#	233410
#	247222
#	256907
#	266405
#	275615
#	286570
#	297122
#	309650
#	321560
#	331427
#	342832
#	353937
#	365852
#
# Disc length: 5010 seconds
#
# Revision: 1
# Processed by: cddbd v1.5.2PL0 Copyright (c) Steve Scherf et al.
# Submitted via: audiograbber 1.83.01
#
DISCID=09139022
DTITLE=Link Davis - Big Mamou
DYEAR=1900
DGENRE=Rockabilly
TTITLE0=Big Mamou
TTITLE1=Pretty Little Dedon
TTITLE2=Lafayette Wedding
TTITLE3=Rice and Gravy Blues
TTITLE4=Chere Petite (Dear Little One)
TTITLE5=Port Arthur
TTITLE6=Lonely Heart
TTITLE7=Time Will Tell
TTITLE8=Mamou Waltz
TTITLE9=Hey, Garcon!
TTITLE10=Falling For You
TTITLE11=Gumbo Ya-Ya (Everybody Talks At Once)
TTITLE12=The Crawfish Crawl
TTITLE13=You're Little But You're Cute
TTITLE14=Mama Say No
TTITLE15=You Show Up Missing
TTITLE16=Everytime I Pass Your Door
TTITLE17=Cajun Love
TTITLE18=Kajalena
TTITLE19=Va t'cacher (Go Hide Yourself)
TTITLE20=Sixteen Chicks
TTITLE21=Deep In The Heart Of A Fool
TTITLE22=Don't Big Shot Me
TTITLE23=Grasshopper Rock
TTITLE24=Trucker From Tennessee
TTITLE25=Bayou Buffalo
TTITLE26=Would You Be Waiting
TTITLE27=Slippin' and Sliddin' Sometimes
TTITLE28=Allons A Lafayette
TTITLE29=Waltz of the Jambalaya
TTITLE30=Big Coonie (Two-Step)
TTITLE31=Bayou Buffalo (2)
TTITLE32=Slippin' and Slidin' Sometimes (2)
TTITLE33=Big Coonie (Two-Step) (2)
EXTD=
EXTT0=
EXTT1=
EXTT2=
EXTT3=
EXTT4=
EXTT5=
EXTT6=
EXTT7=
EXTT8=
EXTT9=
EXTT10=
EXTT11=
EXTT12=
EXTT13=
EXTT14=
EXTT15=
EXTT16=
EXTT17=
EXTT18=
EXTT19=
EXTT20=
EXTT21=
EXTT22=
EXTT23=
EXTT24=
EXTT25=
EXTT26=
EXTT27=
EXTT28=
EXTT29=
EXTT30=
EXTT31=
EXTT32=
EXTT33=
PLAYORDER=
